<svg width="76" height="76" viewBox="0 0 76 76" fill="none" xmlns="http://www.w3.org/2000/svg">
  
            <path d="M2 18C2 9.16344 9.16344 2 18 2H58C66.8366 2 74 9.16344 74 18V58C74 66.8366 66.8366 74 58 74H18C9.16344 74 2 66.8366 2 58V18Z" fill="white"/>
            
            
            <path d="M2 18C2 9.16344 9.16344 2 18 2H58C66.8366 2 74 9.16344 74 18V58C74 66.8366 66.8366 74 58 74H18C9.16344 74 2 66.8366 2 58V18Z" 
                  stroke="url(#smoothFloatingGradient)" stroke-width="2.5"/>
            
            
            <path d="M29.6641 46.3337L46.3307 29.667M46.3307 29.667H29.6641M46.3307 29.667V46.3337" 
                  stroke="url(#smoothArrowGradient)" stroke-width="3" stroke-linecap="round" stroke-linejoin="round"/>
          
            
            <defs>
              
              <linearGradient id="smoothFloatingGradient" x1="0%" y1="0%" x2="100%" y2="100%" gradientUnits="userSpaceOnUse">
                <stop offset="0%" stop-color="#EC0992">
                  <animate attributeName="stop-color" values=" #EC0992; #0D77FB; #EC0992" dur="4s" repeatCount="indefinite" />
                </stop>
                <stop offset="100%" stop-color="#0D77FB">
                  <animate attributeName="stop-color" values="#0D77FB; #EC0992; #0D77FB" dur="4s" repeatCount="indefinite" />
                </stop>
                
                <animate attributeName="x1" values="0%; 50%; 100%; 50%; 0%" dur="8s" repeatCount="indefinite" />
                <animate attributeName="y1" values="0%; 50%; 0%; 100%; 0%" dur="8s" repeatCount="indefinite" />
                <animate attributeName="x2" values="100%; 50%; 0%; 50%; 100%" dur="8s" repeatCount="indefinite" />
                <animate attributeName="y2" values="100%; 0%; 100%; 50%; 100%" dur="8s" repeatCount="indefinite" />
              </linearGradient>
              
              
              <linearGradient id="smoothArrowGradient" x1="0%" y1="0%" x2="100%" y2="100%" gradientUnits="userSpaceOnUse">#EC0992
                <stop offset="0%" stop-color="#EC0992">
                  <animate attributeName="stop-color" values="#EC0992; #0D77FB; #EC0992" dur="4s" repeatCount="indefinite" />#EC0992; #0D77FB; #EC0992
                </stop>
                <stop offset="100%" stop-color="#0D77FB">
                  <animate attributeName="stop-color" values="#0D77FB; #EC0992; #0D77FB" dur="4s" repeatCount="indefinite" />
                </stop>
                
                
                <animate attributeName="x1" values="0%; 50%; 100%; 50%; 0%" dur="8s" repeatCount="indefinite" />
                <animate attributeName="y1" values="0%; 50%; 0%; 100%; 0%" dur="8s" repeatCount="indefinite" />
                <animate attributeName="x2" values="100%; 50%; 0%; 50%; 100%" dur="8s" repeatCount="indefinite" />
                <animate attributeName="y2" values="100%; 0%; 100%; 50%; 100%" dur="8s" repeatCount="indefinite" />
              </linearGradient>
            </defs>
          </svg> 