<svg width="52" height="52" viewBox="0 0 52 52" fill="none" xmlns="http://www.w3.org/2000/svg">
<g filter="url(#filter0_f_8526_559)">
<path d="M24 44C23.1667 27.5 10.3194 23.7917 4 24C10.8056 23.5139 24.3333 18.8333 24 4C24.3472 10.3195 28.8333 23.1667 44 24C29.6667 24 24.6944 37.3333 24 44Z" fill="white"/>
<path d="M40.0007 48.0007C39.6673 41.4007 34.5284 39.9173 32.0007 40.0007C34.7229 39.8062 40.134 37.934 40.0007 32.0007C40.1396 34.5285 41.934 39.6673 48.0007 40.0007C42.2673 40.0007 40.2784 45.334 40.0007 48.0007Z" fill="white"/>
</g>
<path d="M24 44C23.1667 27.5 10.3194 23.7917 4 24C10.8056 23.5139 24.3333 18.8333 24 4C24.3472 10.3195 28.8333 23.1667 44 24C29.6667 24 24.6944 37.3333 24 44Z" fill="white"/>
<path d="M40.0007 48.0007C39.6673 41.4007 34.5284 39.9173 32.0007 40.0007C34.7229 39.8062 40.134 37.934 40.0007 32.0007C40.1396 34.5285 41.934 39.6673 48.0007 40.0007C42.2673 40.0007 40.2784 45.334 40.0007 48.0007Z" fill="white"/>
<defs>
<filter id="filter0_f_8526_559" x="0" y="0" width="52.0007" height="52.0007" filterUnits="userSpaceOnUse" color-interpolation-filters="sRGB">
<feFlood flood-opacity="0" result="BackgroundImageFix"/>
<feBlend mode="normal" in="SourceGraphic" in2="BackgroundImageFix" result="shape"/>
<feGaussianBlur stdDeviation="2" result="effect1_foregroundBlur_8526_559"/>
</filter>
</defs>
</svg>
